<svg t="1587028188166" class="icon" viewBox="0 0 1024 1024" version="1.1" xmlns="http://www.w3.org/2000/svg" p-id="980" width="32" height="32"><path d="M540.5696 102.4c-225.83296 0-409.6 183.74656-409.6 409.6s183.76704 409.6 409.6 409.6c225.85344 0 409.6-183.74656 409.6-409.6s-183.74656-409.6-409.6-409.6z m180.14208 439.84896l-109.19936 128.59392a46.65344 46.65344 0 0 1-65.86368 5.36576 46.71488 46.71488 0 0 1-5.38624-65.8432l43.86816-51.63008h-188.12928a46.6944 46.6944 0 1 1 0-93.42976h188.12928l-43.86816-51.63008a46.75584 46.75584 0 0 1 71.24992-60.47744l109.19936 128.59392c14.82752 17.408 14.82752 43.008 0 60.45696z" p-id="981" fill="#bfbfbf"></path></svg>